<?xml version="1.0" encoding="utf-8"?>
<!-- Generator: Adobe Illustrator 22.1.0, SVG Export Plug-In . SVG Version: 6.00 Build 0)  -->
<svg version="1.1" id="Layer_1" xmlns="http://www.w3.org/2000/svg" xmlns:xlink="http://www.w3.org/1999/xlink" x="0px" y="0px"
	 viewBox="0 0 60 60" style="enable-background:new 0 0 60 60;" xml:space="preserve">
<style type="text/css">
	.st0{fill:#95B6C1;}
	.st1{fill:#FCE4D4;}
	.st2{fill:#BBCCD3;}
	.st3{fill:#446066;}
	.st4{opacity:0.19;}
	.st5{fill:#FFABAC;}
	.st6{opacity:0.16;}
</style>
<g>
	<g>
		<path class="st0" d="M42.1,17.3c-0.4-3.1-0.3-6.6,1-9.4c1.2-2.5,3.7-4.1,6.4-4.2c2.7-0.1,5.9,1.8,7.6,3.9c1.9,2.3,3.2,5.5,2.8,8.5
			c-1,6.7-9.9,7.3-14.8,5.7"/>
	</g>
	<g>
		<path class="st0" d="M17.9,17.3c0.4-3.1,0.3-6.6-1-9.4c-1.2-2.5-3.7-4.1-6.4-4.2C7.8,3.6,4.6,5.5,2.8,7.5C1,9.8-0.4,13,0.1,16.1
			c1,6.7,9.9,7.3,14.8,5.7"/>
	</g>
	<g>
		<path class="st1" d="M44,19c-0.3-1.9-0.3-3.8,0.5-5.6c0.7-1.6,2-2.9,3.6-3.2c1.7-0.3,3.3,0.7,4.4,2c1.2,1.5,1.9,3.9,0.7,5.6
			c-1.5,2-4.1,2.2-6.4,2.2c-0.7,0-1.3,0-2-0.1"/>
	</g>
	<g>
		<path class="st1" d="M16,19c0.3-1.9,0.3-3.8-0.5-5.6c-0.7-1.6-2-2.9-3.6-3.2c-1.7-0.3-3.3,0.7-4.4,2c-1.2,1.5-1.9,3.9-0.7,5.6
			c1.5,2,4.1,2.2,6.4,2.2c0.7,0,1.3,0,2-0.1"/>
	</g>
	<g>
		<path class="st2" d="M53.6,31.8c-1.8-5.3-4-10.6-8.2-14.3c-4-3.6-9.8-5.2-15.2-5.2c0,0-0.1,0-0.1,0c0,0-0.1,0-0.1,0
			c-5.5,0-11.2,1.6-15.2,5.2c-4.1,3.7-6.4,8.9-8.2,14.3c-1.9,5.6-2,12.2,1.7,17.1c3.7,4.9,9.7,6.9,15.4,7.4c4.3,0.4,8.6,0.3,12.9,0
			c5.7-0.5,11.7-2.5,15.4-7.4C55.6,44,55.5,37.4,53.6,31.8z"/>
	</g>
	<ellipse class="st3" cx="17.6" cy="32.3" rx="1.8" ry="1.9"/>
	<g class="st4">
		<path class="st5" d="M19.3,38.2c1.5-3.3-4.8-3.5-5.6-1.2c-0.3,0.8,0.3,1.8,1,2.2c0.8,0.4,1.7,0.3,2.5,0.2
			C18,39.2,18.9,39,19.3,38.2z"/>
	</g>
	<ellipse class="st3" cx="41.9" cy="32.3" rx="1.8" ry="1.9"/>
	<g class="st4">
		<path class="st5" d="M40.2,38.2c-1.5-3.3,4.8-3.5,5.6-1.2c0.3,0.8-0.3,1.8-1,2.2s-1.7,0.3-2.5,0.2C41.4,39.2,40.5,39,40.2,38.2z"
			/>
	</g>
	<g>
		<path class="st1" d="M26.6,47.3c3.5,0.5,8.3,0.8,10.8-2.2c2.3-2.7,2.2-5.8,1.3-9.1c-0.6-2.3-1.8-4.5-3-6.6c-1.5-2.6-4.2-6.1-7.5-5
			c-3,1-4.9,4.3-6,7.1c-1.1,2.8-1.9,5.6-2.1,8.6c-0.1,1.5,0,3,0.7,4.2C22.3,46.6,24.4,47,26.6,47.3z"/>
	</g>
	<g>
		<path class="st3" d="M28.1,26.9c-1.4,1-2.2,3-2.9,4.5c-0.8,1.8-1.3,3.8-1.4,5.9c0,3.6,3.6,5.1,6.7,4.8c1.5-0.2,3.2-0.7,4.2-1.9
			c1.3-1.7,0.8-4.5,0.2-6.4c-0.6-2-1.6-3.9-2.9-5.5C31,27.1,29.5,25.9,28.1,26.9z"/>
	</g>
	<g>
		<path class="st3" d="M27.7,43.1c0.9,1.8,3.3,1.8,4.2-0.1c0.1-0.2-0.2-0.5-0.4-0.2c-0.7,1.6-2.7,1.6-3.5,0.1
			C27.9,42.7,27.6,42.9,27.7,43.1L27.7,43.1z"/>
	</g>
	<g class="st6">
		<path class="st2" d="M53.6,31.8c-1.7-5-3.8-9.9-7.5-13.6c0.3,0.6,0.6,1.2,0.8,1.8c2.6,6.2,4.2,13.9,1.6,20.5
			c-1.3,3.3-3.2,6.2-6.1,8.2c-4,2.7-8.9,3.3-13.5,3.4c-4.6,0.1-9.4,0.3-13.9-0.9c-2.7-0.7-5.2-1.8-7.4-3.3c0.2,0.3,0.4,0.6,0.7,1
			c3.7,4.9,9.7,6.9,15.4,7.4c4.3,0.4,8.6,0.3,12.9,0c5.7-0.5,11.7-2.5,15.4-7.4C55.6,44,55.5,37.4,53.6,31.8z"/>
	</g>
</g>
</svg>
