<?xml version="1.0" encoding="utf-8"?>
<!-- Generator: Adobe Illustrator 22.1.0, SVG Export Plug-In . SVG Version: 6.00 Build 0)  -->
<svg version="1.1" id="Layer_1" xmlns="http://www.w3.org/2000/svg" xmlns:xlink="http://www.w3.org/1999/xlink" x="0px" y="0px"
	 viewBox="0 0 60 60" style="enable-background:new 0 0 60 60;" xml:space="preserve">
<style type="text/css">
	.st0{fill:#F4B331;}
	.st1{fill:#7A344B;}
	.st2{fill:#F7D02F;}
	.st3{opacity:0.29;}
	.st4{fill:#FFABAC;}
	.st5{opacity:0.11;}
	.st6{opacity:0.18;}
	.st7{fill:#FFFFFF;}
</style>
<g>
	<g>
		<path class="st0" d="M44.7,15.1c-0.4-0.6-0.7-1.3-1-2c-1.4-3.7-0.3-9,4.5-10c3.5-0.7,7.6,0.8,9.9,3.3c1.7,1.9,1.9,4.8,1,7.1
			c-1.4,3.2-6.7,4.5-10,4.8"/>
	</g>
	<g>
		<path class="st0" d="M15.3,15.1c0.4-0.6,0.7-1.3,1-2c1.4-3.7,0.3-9-4.5-10C8.3,2.4,4.2,3.9,1.9,6.4c-1.7,1.9-1.9,4.8-1,7.1
			c1.4,3.2,6.7,4.5,10,4.8"/>
	</g>
	<g>
		<path class="st1" d="M46.7,15.1c-0.1-1.1-0.3-2.3-0.1-3.4c0.3-1.6,1.5-3.2,3.5-3.1c2.4,0.2,4.2,2,4,4.3c-0.2,2.1-4,3.2-5.8,3.4"/>
	</g>
	<g>
		<path class="st1" d="M13.3,15.1c0.1-1.1,0.3-2.3,0.1-3.4c-0.3-1.6-1.5-3.2-3.5-3.1c-2.4,0.2-4.2,2-4,4.3c0.2,2.1,4,3.2,5.8,3.4"/>
	</g>
	<g>
		<path class="st2" d="M58.7,29c-1.3-4.8-4-9.3-7.9-12.6c-4.6-3.8-10.6-5.7-16.7-6.4c-8.1-0.8-17,1.2-23.1,6.4C7,19.7,4.3,24.2,3,29
			c-1.3,4.8-1.4,10.7,0.5,15.4c1,2.3,2.8,4,4.9,5.5c4.4,3.2,9.9,4.3,15.3,5c2.3,0.3,4.7,0.5,7,0.5c0,0,0.1,0,0.1,0c0,0,0.1,0,0.1,0
			c2.3,0,4.7-0.2,7-0.5c5.5-0.7,10.9-1.8,15.3-5c2.1-1.5,3.9-3.2,4.9-5.5C60.1,39.7,60,33.8,58.7,29z"/>
	</g>
	<g>
		<path class="st1" d="M32.2,18.6c1.1-2.8,1.4-5.7,1.5-8.7c-1.8-0.2-3.7-0.2-5.6-0.1c0.3,3,1,5.9,2.3,8.6c0.2,0.5,0.6,1,1.1,0.9
			C31.9,19.3,32.1,18.9,32.2,18.6z"/>
	</g>
	<g>
		<path class="st1" d="M35.2,10.1c0,1.2,0.1,2.4,0.4,3.5c0.1,0.4,0.2,0.9,0.5,1.1c0.6-0.2,0.9-0.6,1.3-1.1c0.7-0.9,1.2-1.9,1.6-2.9
			C37.7,10.5,36.4,10.3,35.2,10.1z"/>
	</g>
	<g>
		<path class="st1" d="M22.6,10.7c0.4,1.1,0.9,2.1,1.6,3c0.3,0.5,0.7,0.9,1.3,1.1c0.3-0.3,0.4-0.7,0.5-1.1c0.2-1.2,0.3-2.4,0.4-3.6
			C25.1,10.2,23.9,10.4,22.6,10.7z"/>
	</g>
	<ellipse class="st1" cx="20.5" cy="34.1" rx="2.3" ry="2.2"/>
	<g class="st3">
		<path class="st4" d="M24,41.3c1.9-3.8-6.2-4.1-7.2-1.4c-0.4,1,0.3,2.1,1.3,2.5c1,0.5,2.1,0.4,3.2,0.3C22.4,42.5,23.6,42.2,24,41.3
			z"/>
	</g>
	<ellipse class="st1" cx="41.9" cy="34.1" rx="2.3" ry="2.2"/>
	<g class="st3">
		<path class="st4" d="M38.4,41.3c-1.9-3.8,6.2-4.1,7.2-1.4c0.4,1-0.3,2.1-1.3,2.5s-2.1,0.4-3.2,0.3C40.1,42.5,38.9,42.2,38.4,41.3z
			"/>
	</g>
	<g>
		<path class="st1" d="M34.4,36.2c0.4-0.4,0.7-0.9,0.9-1.4c0.3-1.2-1.8-1.6-2.7-1.7C31,32.9,29.5,33,28,33.3
			c-0.6,0.1-1.2,0.4-1.6,0.8c-0.1,0.2-0.1,0.4-0.1,0.6c0.4,1.3,1.8,2.2,3,2.8c0.6,0.3,1.4,0.7,2,0.6c0.8-0.1,1.6-0.8,2.2-1.3
			C33.9,36.6,34.1,36.4,34.4,36.2z"/>
	</g>
	<g>
		<path class="st1" d="M30.4,36.1c0.1,1.8,0.2,3.7,0.2,5.5c0,0.5,0.8,0.5,0.8,0c0-1.8-0.1-3.7-0.2-5.5
			C31.1,35.7,30.3,35.7,30.4,36.1L30.4,36.1z"/>
	</g>
	<g>
		<path class="st1" d="M26.4,38.9c1.2,4.4,7.8,4.4,9-0.1c0.1-0.4-0.6-0.6-0.7-0.2c-0.9,3.8-6.4,3.9-7.5,0.1
			C27,38.2,26.2,38.4,26.4,38.9L26.4,38.9z"/>
	</g>
	<g>
		<path class="st1" d="M56.7,23.9c-0.7,0.8-1.4,1.6-2.3,2.2c-1,0.8-2.1,1.4-2.9,2.3c-0.1,0.1-0.2,0.2-0.2,0.4c0,0.3,0.4,0.4,0.8,0.4
			c2.2,0.1,4.3-0.3,6.3-1C58,26.7,57.4,25.3,56.7,23.9z"/>
	</g>
	<g>
		<path class="st1" d="M59.6,35.8c0-1.9-0.3-3.7-0.6-5.4c-1.3,0.7-2.7,1.3-4.1,1.7c-1.4,0.4-2.9,0.6-4.2,1.2
			c-0.2,0.1-0.3,0.2-0.4,0.3c-0.1,0.3,0.3,0.6,0.6,0.7C53.7,35.5,56.7,36,59.6,35.8z"/>
	</g>
	<g>
		<path class="st1" d="M59.6,38.2c-0.5,0-1.1,0.1-1.6,0c-1.3,0-2.5-0.2-3.8-0.1c-0.1,0-0.3,0.1-0.4,0.2c-0.2,0.2,0,0.6,0.3,0.8
			c1.4,1.3,3.1,2.3,4.9,3C59.3,40.8,59.5,39.5,59.6,38.2z"/>
	</g>
	<g>
		<path class="st1" d="M2.8,42.4c2.1-0.7,4.1-1.8,5.7-3.2c0.2-0.2,0.5-0.5,0.3-0.8c-0.1-0.1-0.3-0.1-0.4-0.2c-1.2-0.2-2.5,0-3.8,0.1
			c-0.8,0-1.7,0-2.5-0.1C2.2,39.6,2.4,41,2.8,42.4z"/>
	</g>
	<g>
		<path class="st1" d="M11.8,33.3c-1.3-0.6-2.8-0.8-4.2-1.2c-1.7-0.5-3.4-1.2-4.9-2.2c-0.4,1.9-0.7,3.8-0.7,5.9c0,0,0.1,0,0.1,0
			c3.2,0.3,6.5-0.2,9.5-1.4c0.3-0.1,0.7-0.4,0.6-0.7C12.1,33.5,12,33.4,11.8,33.3z"/>
	</g>
	<g>
		<path class="st1" d="M8.1,26.1c-1.1-0.8-2-1.8-2.8-2.9c-0.8,1.5-1.5,3.1-2,4.7c2.2,0.9,4.7,1.4,7.1,1.3c0.3,0,0.7-0.1,0.8-0.4
			c0-0.1-0.1-0.3-0.2-0.4C10.2,27.5,9.1,26.8,8.1,26.1z"/>
	</g>
	<g class="st5">
		<path class="st0" d="M58.7,29c-0.5-2-1.3-4-2.4-5.9c0.4,7.8-2.8,16-8.5,21.5c-6,5.9-14.5,8.8-23,9.6c-1.2,0.1-2.4,0.2-3.6,0.2
			c0.8,0.1,1.7,0.3,2.5,0.4c2.3,0.3,4.7,0.5,7,0.5c0,0,0.1,0,0.1,0c0,0,0.1,0,0.1,0c2.3,0,4.7-0.2,7-0.5c5.5-0.7,10.9-1.8,15.3-5
			c2.1-1.5,3.9-3.2,4.9-5.5C60.1,39.7,60,33.8,58.7,29z"/>
	</g>
	<g class="st6">
		<path class="st7" d="M5.6,34.2c2.9-6.8,7.8-14.3,15.2-17.5c7.6-3.4,16.5-3.9,24.7-2.7c0.9,0.1,1.8,0.3,2.7,0.5
			c-4.1-2.6-9.1-4-14.1-4.5c-8.1-0.8-17,1.2-23.1,6.4C7,19.7,4.3,24.2,3,29c-1.2,4.6-1.4,10.2,0.2,14.7C3.5,40.4,4.3,37.2,5.6,34.2z
			"/>
	</g>
</g>
</svg>
