<?xml version="1.0" encoding="utf-8"?>
<!-- Generator: Adobe Illustrator 22.1.0, SVG Export Plug-In . SVG Version: 6.00 Build 0)  -->
<svg version="1.1" id="Layer_1" xmlns="http://www.w3.org/2000/svg" xmlns:xlink="http://www.w3.org/1999/xlink" x="0px" y="0px"
	 viewBox="0 0 60 60" style="enable-background:new 0 0 60 60;" xml:space="preserve">
<style type="text/css">
	.st0{fill:#F29353;}
	.st1{fill:#F7D1B7;}
	.st2{fill:#FFA766;}
	.st3{fill:#7A344B;}
	.st4{opacity:0.4;}
	.st5{fill:#FFABAC;}
	.st6{opacity:0.14;}
	.st7{opacity:0.18;}
	.st8{fill:#FFFFFF;}
</style>
<g>
	<g>
		<path class="st0" d="M41.2,15c-1.7-4-1.1-9.9,2.8-12.4c3.3-2.1,8.1-1.7,11.2,0.5c4.4,3.1,5.7,11.2,0.6,14.4
			c-1.5,1-3.9,1.8-5.7,1.8"/>
	</g>
	<g>
		<path class="st0" d="M18.4,15c1.7-4,1.1-9.9-2.8-12.4C12.2,0.6,7.4,0.9,4.3,3.1c-4.4,3.1-5.7,11.2-0.6,14.4c1.5,1,3.9,1.8,5.7,1.8
			"/>
	</g>
	<g>
		<path class="st1" d="M44.2,14.9c-0.4-2.4,0.2-5.5,2.3-7c1.3-0.9,3.2-0.7,4.5-0.2c1.5,0.6,2.2,2.2,2.4,3.7c0.3,3.3-3.5,5.1-6.1,5.9
			"/>
	</g>
	<g>
		<path class="st1" d="M15.3,14.9c0.4-2.4-0.2-5.5-2.3-7c-1.3-0.9-3.2-0.7-4.5-0.2C6.9,8.4,6.3,10,6.1,11.5
			c-0.3,3.3,3.5,5.1,6.1,5.9"/>
	</g>
	<g>
		<path class="st2" d="M45.2,13.5c-2.7-1.4-5.6-1.9-8.6-2.4c-3.2-0.5-6.3-0.8-9.5-0.3c-3.5,0.5-7.4,1.1-10.5,2.7
			c-9.8,5-15.3,17.2-14.3,28.1C3.7,55.3,18.1,59,30.9,58.7c12.8,0.3,27.2-3.4,28.5-17.1C60.5,30.8,55,18.5,45.2,13.5z"/>
	</g>
	<g>
		<path class="st1" d="M30.9,28.1c-2.1-0.2-4,0.7-5.4,2.5c-1.5,2-2.7,3.8-3.5,6.2c-0.8,2.2-1.4,4.5-1.3,6.8c0,1.6,1.3,2.9,2.5,3.8
			c2.7,2,6.6,2.3,9.8,1.8c3.8-0.5,8.8-3.1,8-7.7c-0.5-2.8-1.5-6-3.2-8.3c-1.5-2.2-3.2-4.3-5.8-5C31.7,28.2,31.3,28.1,30.9,28.1z"/>
	</g>
	<circle class="st3" cx="18.4" cy="33.4" r="2.2"/>
	<g class="st4">
		<path class="st5" d="M20.5,40.3c1.8-3.9-5.9-4.1-6.8-1.5c-0.4,1,0.3,2.1,1.2,2.5c0.9,0.5,2,0.4,3,0.3C18.9,41.5,20,41.2,20.5,40.3
			z"/>
	</g>
	<circle class="st3" cx="43.5" cy="33.4" r="2.2"/>
	<g class="st4">
		<path class="st5" d="M41.4,40.3c-1.8-3.9,5.9-4.1,6.8-1.5c0.4,1-0.3,2.1-1.2,2.5c-0.9,0.5-2,0.4-3,0.3
			C43,41.5,41.9,41.2,41.4,40.3z"/>
	</g>
	<g class="st6">
		<path class="st5" d="M55.2,23.1c0.1,0.8,0.1,1.5,0.1,2.3c0.1,0.4,0.2,0.8,0.2,1.2c1,6.9-0.3,14.1-4.4,19.9
			C47,52.5,40.8,56,33.7,57.2c-2.7,0.5-5.5,1-8.4,1.3c1.9,0.2,3.8,0.2,5.7,0.2c12.8,0.3,27.2-3.4,28.5-17.1
			C60.1,35.4,58.5,28.7,55.2,23.1z"/>
	</g>
	<g class="st7">
		<path class="st8" d="M28.3,32.2c1.7-1.4,3.6-2.5,5.5-3.2c-0.5-0.3-1.1-0.6-1.8-0.7c-0.4-0.1-0.8-0.2-1.1-0.2
			c-2.1-0.2-4,0.7-5.4,2.5c-1.5,2-2.7,3.8-3.5,6.2c-0.8,2.2-1.4,4.5-1.3,6.8c0,1,0.5,1.9,1.2,2.7C22.6,41,24.6,35.4,28.3,32.2z"/>
	</g>
	<g>
		<g>
			<g>
				<path class="st3" d="M30.4,34.3c0,1.2,0.1,2.3,0.1,3.5c0,0.6,1,0.6,1,0c-0.1-1.2-0.1-2.3-0.1-3.5C31.4,33.6,30.4,33.6,30.4,34.3
					L30.4,34.3z"/>
			</g>
		</g>
		<g>
			<g>
				<path class="st3" d="M27.4,35.8c0.9,3.8,6.3,3.8,7.1-0.1c0.1-0.6-0.8-0.9-1-0.3c-0.6,2.9-4.5,3-5.2,0.1
					C28.2,34.9,27.3,35.2,27.4,35.8L27.4,35.8z"/>
			</g>
		</g>
		<g>
			<path class="st3" d="M34.4,31.2c-0.2-0.1-0.3-0.2-0.5-0.3c-1.9-0.8-4.4-0.8-6.2,0.4c-0.3,0.2-0.6,0.4-0.6,0.7
				c-0.1,0.7,0.7,1.3,1.1,1.8c0.5,0.6,1.1,0.9,1.8,1.2c0.4,0.2,0.8,0.4,1.2,0.5c1,0,2-1,2.7-1.6c0.6-0.5,1.3-1.5,1-2.2
				C34.7,31.5,34.5,31.3,34.4,31.2z"/>
		</g>
	</g>
</g>
</svg>
