<?xml version="1.0" encoding="utf-8"?>
<!-- Generator: Adobe Illustrator 22.1.0, SVG Export Plug-In . SVG Version: 6.00 Build 0)  -->
<svg version="1.1" id="Layer_1" xmlns="http://www.w3.org/2000/svg" xmlns:xlink="http://www.w3.org/1999/xlink" x="0px" y="0px"
	 viewBox="0 0 60 60" style="enable-background:new 0 0 60 60;" xml:space="preserve">
<style type="text/css">
	.st0{fill:#FFFFFF;}
	.st1{fill:#7A344B;}
	.st2{opacity:0.42;}
	.st3{fill:#FFABAC;}
	.st4{fill:#FF7383;}
	.st5{fill:#FFD401;}
	.st6{opacity:0.26;}
	.st7{fill:#F5EDE3;}
	.st8{opacity:0.23;}
	.st9{opacity:0.1;}
</style>
<g>
	<g>
		<path class="st0" d="M52.4,38.8c-0.5-2.6-0.9-5.3-1.9-7.8c-2.1-5.7-6.9-10.7-13-12.3l-7-0.5v-0.1l-0.5,0l-0.5,0v0.1l-7,0.5
			c-6,1.6-10.8,6.6-13,12.3c-0.9,2.5-1.4,5.1-1.9,7.8c-0.3,1.8-0.6,3.6-0.5,5.4c0.2,2.7,1.4,5.2,3.4,7.1c2.4,2.4,6.6,4,10,4.3
			c3,0.3,6,0.5,9,0.5v0c0.2,0,0.4,0,0.5,0c0.2,0,0.4,0,0.5,0v0c3,0,6-0.2,9-0.5c3.4-0.3,7.5-2,10-4.3c1.9-1.9,3.2-4.5,3.4-7.1
			C53,42.4,52.7,40.6,52.4,38.8z"/>
	</g>
	<circle class="st1" cx="23.9" cy="35" r="1.6"/>
	<ellipse class="st1" cx="38.2" cy="38.3" rx="1.8" ry="1.8"/>
	<g class="st2">
		<path class="st3" d="M25.4,40.1c1.3-2.8-4.3-3.1-5-1.1c-0.3,0.7,0.2,1.5,0.9,1.9c0.7,0.3,1.5,0.3,2.2,0.2
			C24.3,41,25.1,40.8,25.4,40.1z"/>
	</g>
	<g class="st2">
		<path class="st3" d="M36.6,43.8c-1.4-3.1,4.8-3.3,5.6-1.2c0.3,0.8-0.3,1.6-1,2c-0.8,0.4-1.6,0.3-2.5,0.2
			C37.9,44.7,37,44.5,36.6,43.8z"/>
	</g>
	<g>
		<path class="st4" d="M30.2,38.1c0.1,0.7,0.2,1.4,0.1,2.1c-0.1,0.6-0.3,1.1-0.6,1.7c-0.5,1.4-0.9,2.8-0.8,4.3c0,0.8,0.2,1.7,1,2.2
			c1,0.7,2.2,0.3,2.8-0.6c1.3-1.7,0.1-4.2-0.3-6C32.2,40.9,32,40,32,39.1c0-0.7,0-1.4,0.5-1.9"/>
	</g>
	<g>
		<path class="st5" d="M34.6,38.3c0.1,0,0.2,0.1,0.3,0.1c0.1,0.1-1.9,2.3-2.1,2.5c-0.9,0.8-1.7,1.7-2.6,2.5c0,0-0.1,0.1-0.1,0.1
			c0,0-0.1,0-0.1,0c-1.8-1.3-3.5-2.9-4.9-4.6c-0.1-0.1,1.8-0.9,2-1c0.7-0.2,1.5-0.3,2.3-0.4C31.2,37.3,33,37.5,34.6,38.3z"/>
	</g>
	<g class="st6">
		<path class="st7" d="M52.4,38.8c-0.5-2.6-0.9-5.3-1.9-7.8c-0.1-0.4-0.3-0.7-0.5-1.1c0,0.9-0.1,1.8-0.2,2.7c0,1-0.1,2-0.3,3.1
			c-0.7,4-2.3,7.9-5,10.9c-1.6,2.1-3.6,3.8-6.1,5.1c-6,3.2-13.1,3.9-19.8,3.6c-0.1,0-0.2,0-0.3,0c0.7,0.2,1.4,0.3,2.1,0.4
			c3,0.3,6,0.5,9,0.5v0c0.2,0,0.4,0,0.5,0c0.2,0,0.4,0,0.5,0v0c3,0,6-0.2,9-0.5c3.4-0.3,7.5-2,10-4.3c1.9-1.9,3.2-4.5,3.4-7.1
			C53,42.4,52.7,40.6,52.4,38.8z"/>
	</g>
	<g class="st8">
		<path class="st0" d="M7.4,45.8c2.1-7.9,8.7-15.2,15.2-19.1c6.1-3.6,12.9-5.3,19.8-5.7c-1.5-1-3.2-1.7-4.9-2.2l-7-0.5v-0.1l-0.5,0
			l-0.5,0v0.1l-7,0.5c-6,1.6-10.8,6.6-13,12.3c-0.9,2.5-1.4,5.1-1.9,7.8c-0.3,1.8-0.6,3.6-0.5,5.4C7.2,44.8,7.3,45.3,7.4,45.8z"/>
	</g>
	<g>
		<path class="st4" d="M41.2,19.7c-2.2,0.9-4.6,1.7-6.7,2.7c-1.9,1-4.5,3.5-6.8,3.1c-0.7-0.1-1.3-0.5-1.8-0.9
			c-2.1-1.7-3-4.9-3.8-7.4c-1-2.9-1.3-6.1-0.4-9.1c0.5-1.5,1.4-3.1,2.9-3.5c1-0.3,2.2,0,3,0.6c0.9,0.6,1.2,1.6,1.7,2.5
			c0.6-2.4,2.1-4.6,4.4-5.5S39,2.3,40,4.5c1,2.1-0.1,4.6-1.2,6.7c0.9-1.8,4.6-1.4,6.1-0.7c2.8,1.2,2.5,5.1,0.4,6.8
			C44.1,18.4,42.7,19.1,41.2,19.7z"/>
	</g>
	<g class="st9">
		<path class="st0" d="M29,12.9c2-2.6,4.5-4.6,6.7-7.1c0.9-1,1.8-2,2.3-3.2c-1.3-0.7-3-0.8-4.4-0.2c-2.3,0.9-3.8,3.2-4.4,5.5
			c-0.5-0.9-0.8-1.9-1.7-2.5c-0.9-0.6-2-0.9-3-0.6c-1.5,0.4-2.5,2-2.9,3.5c-0.9,3-0.6,6.2,0.4,9.1c0.7,2.2,1.6,5,3.2,6.8
			C24.9,20.2,26.6,16.1,29,12.9z"/>
	</g>
</g>
</svg>
