<?xml version="1.0" encoding="utf-8"?>
<!-- Generator: Adobe Illustrator 22.1.0, SVG Export Plug-In . SVG Version: 6.00 Build 0)  -->
<svg version="1.1" id="Layer_1" xmlns="http://www.w3.org/2000/svg" xmlns:xlink="http://www.w3.org/1999/xlink" x="0px" y="0px"
	 viewBox="0 0 60 60" style="enable-background:new 0 0 60 60;" xml:space="preserve">
<style type="text/css">
	.st0{fill:#3EC1A1;}
	.st1{fill:#E8FC4B;}
	.st2{fill:#306658;}
	.st3{opacity:0.39;}
	.st4{fill:#234C40;}
</style>
<g>
	<g>
		<path class="st0" d="M58.7,33.3c-1-5.4-3.1-10.6-5.6-15.3c1.3-2.2,2-4.7,1.9-7.4C54.9,3,48.2-0.6,42.1,2.3c-4.1,2-4,6-4,10.3
			c-0.7-0.5-1.6-0.7-2.4-0.8c-3.9-0.6-7.5-0.6-11.4,0c-0.8,0.1-1.7,0.3-2.4,0.8c0-4.2,0.1-8.3-4-10.3C11.8-0.6,5,3,4.9,10.5
			c0,2.7,0.6,5.2,1.9,7.4c-2.6,4.7-4.7,9.9-5.6,15.3c-1,5.5-0.5,11.6,2.3,16.4c1.8,3,5.5,5.4,8.6,6.5c5.2,1.8,10.7,2.5,16.2,2.5
			c0.6,0,1.1,0,1.7,0c0.6,0,1.1,0,1.7,0c5.4,0,11-0.7,16.2-2.5c3-1.1,6.8-3.5,8.6-6.5C59.3,44.9,59.7,38.8,58.7,33.3z"/>
	</g>
	<g>
		<path class="st1" d="M17.1,19.6c1.9-4.5-6.2-4.8-7.2-1.7c-0.4,1.1,0.3,2.4,1.3,3c1,0.5,2.1,0.5,3.2,0.3
			C15.5,21,16.7,20.7,17.1,19.6z"/>
	</g>
	<g>
		<path class="st1" d="M42.4,19.6c-1.9-4.5,6.2-4.8,7.2-1.7c0.4,1.1-0.3,2.4-1.3,3c-1,0.5-2.1,0.5-3.2,0.3
			C44.1,21,42.9,20.7,42.4,19.6z"/>
	</g>
	<g>
		<ellipse class="st2" cx="13.6" cy="11.1" rx="2.3" ry="2.6"/>
		<ellipse class="st2" cx="45.9" cy="11.1" rx="2.3" ry="2.6"/>
		<g>
			<path class="st2" d="M26.5,14.2c-0.2,2.3,1.3,4.1,3.4,4.3c2.1,0.1,3.6-2.1,3.5-4.2c0-0.5-0.7-0.5-0.7,0c0,1.9-1.1,3.3-2.8,3.4
				c-1.7,0.1-2.8-1.7-2.7-3.5C27.3,13.7,26.6,13.7,26.5,14.2L26.5,14.2z"/>
		</g>
	</g>
	<g class="st3">
		<path class="st2" d="M58.7,33.3c-0.4-2-0.9-3.9-1.5-5.8c-1.1,8.2-5.5,16.3-11.1,20.9c-6.8,5.5-16.5,7.6-24.7,7.4
			c-5.2-0.1-10.4-1.1-15.2-3.1c1.8,1.6,4,2.8,5.9,3.5c5.2,1.8,10.7,2.5,16.2,2.5c0.6,0,1.1,0,1.7,0c0.6,0,1.1,0,1.7,0
			c5.4,0,11-0.7,16.2-2.5c3-1.1,6.8-3.5,8.6-6.5C59.3,44.9,59.7,38.8,58.7,33.3z"/>
	</g>
	<g class="st3">
		<g>
			<path class="st4" d="M19.4,39.7c1.2,0,1.2-2.1,0-2.1C18.2,37.6,18.2,39.7,19.4,39.7L19.4,39.7z"/>
		</g>
		<g>
			<path class="st4" d="M32.6,41.5c1.2,0,1.2-2.1,0-2.1C31.4,39.4,31.4,41.5,32.6,41.5L32.6,41.5z"/>
		</g>
		<g>
			<path class="st4" d="M24.2,46c1.2,0,1.2-2.1,0-2.1S23,46,24.2,46L24.2,46z"/>
		</g>
		<g>
			<path class="st4" d="M29,52.2c1.2,0,1.2-2.1,0-2.1S27.8,52.2,29,52.2L29,52.2z"/>
		</g>
		<g>
			<path class="st4" d="M36.7,47.6c1.2,0,1.2-2.1,0-2.1C35.5,45.5,35.5,47.6,36.7,47.6L36.7,47.6z"/>
		</g>
		<g>
			<path class="st4" d="M40.5,40.6c1.2,0,1.2-2.1,0-2.1S39.3,40.6,40.5,40.6L40.5,40.6z"/>
		</g>
		<g>
			<path class="st4" d="M46.6,44.5c1.2,0,1.2-2.1,0-2.1S45.4,44.5,46.6,44.5L46.6,44.5z"/>
		</g>
		<g>
			<path class="st4" d="M47.5,49.5c1.2,0,1.2-2.1,0-2.1C46.3,47.4,46.3,49.5,47.5,49.5L47.5,49.5z"/>
		</g>
		<g>
			<path class="st4" d="M18.8,51.7c1.2,0,1.2-2.1,0-2.1S17.6,51.7,18.8,51.7L18.8,51.7z"/>
		</g>
		<g>
			<path class="st4" d="M11.4,42.9c1.2,0,1.2-2.1,0-2.1S10.2,42.9,11.4,42.9L11.4,42.9z"/>
		</g>
		<g>
			<path class="st4" d="M15.3,46.3c1.2,0,1.2-2.1,0-2.1S14.1,46.3,15.3,46.3L15.3,46.3z"/>
		</g>
	</g>
</g>
</svg>
