<?xml version="1.0" encoding="utf-8"?>
<!-- Generator: Adobe Illustrator 22.1.0, SVG Export Plug-In . SVG Version: 6.00 Build 0)  -->
<svg version="1.1" id="Layer_1" xmlns="http://www.w3.org/2000/svg" xmlns:xlink="http://www.w3.org/1999/xlink" x="0px" y="0px"
	 viewBox="0 0 60 60" style="enable-background:new 0 0 60 60;" xml:space="preserve">
<style type="text/css">
	.st0{fill:#7F495F;}
	.st1{fill:#FFFFFF;}
	.st2{fill:#5B2C3D;}
	.st3{fill:#FFABAC;}
	.st4{opacity:0.26;}
	.st5{fill:#EFE6DA;}
</style>
<g>
	<g>
		<path class="st0" d="M43.1,15.6C39.9,12,39.6,4.9,44.8,2.9c4.3-1.7,9.2,0.7,11.7,4.4c3.1,4.7-3.6,10.5-7.8,10.8"/>
	</g>
	<g>
		<path class="st0" d="M16.8,15.6c3.2-3.6,3.6-10.7-1.6-12.7C10.9,1.2,6,3.5,3.5,7.3C0.4,12,7.1,17.7,11.4,18.1"/>
	</g>
	<g>
		<path class="st1" d="M51,18.1c-11.9-8.3-30.2-8.3-42,0c-7.5,5.3-9,17.1-7.5,25.6c0.6,3.4,2,6.7,4.6,9c4.2,3.8,11,4.6,16.4,4.9
			c2.5,0.2,5,0.2,7.6,0.1c2.5,0.1,5,0.1,7.6-0.1c5.4-0.3,12.2-1.1,16.4-4.9c2.6-2.3,4-5.6,4.6-9C60,35.2,58.5,23.4,51,18.1z"/>
	</g>
	<g>
		<path class="st0" d="M20.4,46.2c3.7-2.3,5.3-6.8,5.8-11c0.2-1.7,0.4-3.2,0.1-4.9c-0.6-3-2.5-4.5-5.3-5.4c-5.4-1.8-11.5,2.1-13.6,7
			c-2,4.6-1.5,10.5,2.6,13.7c0.6,0.5,1.4,0.8,2.1,1.1C14.7,47.7,17.9,47.7,20.4,46.2z"/>
	</g>
	<g>
		<path class="st0" d="M39.6,46.2c-3.7-2.3-5.3-6.8-5.8-11c-0.2-1.7-0.4-3.2-0.1-4.9c0.6-3,2.5-4.5,5.3-5.4c5.4-1.8,11.5,2.1,13.6,7
			c2,4.6,1.5,10.5-2.6,13.7c-0.6,0.5-1.4,0.8-2.1,1.1C45.2,47.7,42,47.7,39.6,46.2z"/>
	</g>
	<ellipse class="st2" cx="19.9" cy="34.8" rx="2.2" ry="2.2"/>
	<g>
		<path class="st3" d="M23.2,42.1c1.8-3.9-5.9-4.2-6.8-1.5c-0.4,1,0.3,2.1,1.2,2.5c0.9,0.5,2,0.4,3,0.3C21.7,43.3,22.8,43,23.2,42.1
			z"/>
	</g>
	<g>
		<path class="st2" d="M29.9,34.6c0,1,0.1,1.9,0.1,2.9c0,0.3,0.5,0.3,0.5,0c0-1-0.1-1.9-0.1-2.9C30.4,34.3,29.9,34.3,29.9,34.6
			L29.9,34.6z"/>
	</g>
	<g>
		<path class="st2" d="M27.4,36.1c1.3,2.5,4.7,2.2,5.6-0.4c0.1-0.3-0.4-0.5-0.5-0.1c-0.7,2.2-3.6,2.4-4.6,0.3
			C27.7,35.5,27.2,35.8,27.4,36.1L27.4,36.1z"/>
	</g>
	<ellipse class="st2" cx="40.1" cy="34.8" rx="2.2" ry="2.2"/>
	<g>
		<path class="st3" d="M36.7,42.1c-1.8-3.9,5.9-4.2,6.8-1.5c0.4,1-0.3,2.1-1.2,2.5c-0.9,0.5-2,0.4-3,0.3
			C38.3,43.3,37.2,43,36.7,42.1z"/>
	</g>
	<g>
		<path class="st2" d="M30.7,35.4c0.6-0.2,1.1-0.7,1.5-1.1c0.4-0.4,0.8-0.8,0.7-1.5c-0.1-0.4-0.7-0.6-1.1-0.7
			C31.4,32,31,32,30.6,31.9c-0.8,0-1.6,0.1-2.4,0.3c-0.5,0.1-1,0.4-0.8,1c0.3,1,1.8,2.2,2.9,2.2C30.4,35.5,30.5,35.4,30.7,35.4z"/>
	</g>
	<g class="st4">
		<path class="st5" d="M56.6,25.1c-0.1,1.3-0.2,2.5-0.4,3.7c-1.6,9.6-7.8,18.4-16.8,22.4c-7.1,3.1-16,4.2-23.6,3.8
			c-2.9-0.2-5.9-0.6-8.6-1.5c4.2,3,10.4,3.7,15.3,4c2.5,0.2,5,0.2,7.6,0.1c2.5,0.1,5,0.1,7.6-0.1c5.4-0.3,12.2-1.1,16.4-4.9
			c2.6-2.3,4-5.6,4.6-9C59.5,38,59.2,30.8,56.6,25.1z"/>
	</g>
</g>
</svg>
