<?xml version="1.0" encoding="utf-8"?>
<!-- Generator: Adobe Illustrator 22.1.0, SVG Export Plug-In . SVG Version: 6.00 Build 0)  -->
<svg version="1.1" id="Layer_1" xmlns="http://www.w3.org/2000/svg" xmlns:xlink="http://www.w3.org/1999/xlink" x="0px" y="0px"
	 viewBox="0 0 70 60" style="enable-background:new 0 0 70 60;" xml:space="preserve">
<style type="text/css">
	.st0{fill:#F29353;}
	.st1{fill:#F7D1B7;}
	.st2{fill:#FFA766;}
	.st3{fill:#7A344B;}
	.st4{opacity:0.32;}
	.st5{fill:#FFABAC;}
	.st6{opacity:0.16;}
</style>
<g>
	<g>
		<path class="st0" d="M13.9,20.9c-1.4-3-4.9-3.8-7.6-3.2c-2.7,0.7-5,2.8-5.9,5.8c-0.3,1-0.4,2.1-0.5,3.2c0,0.9,0,1.8,0.1,2.6
			c0.4,2.8,2.1,5.2,4.3,6.5c2.4,1.4,5.4,1.2,7.6-0.5"/>
	</g>
	<g>
		<path class="st0" d="M56.1,20.9c1.4-3,4.9-3.8,7.6-3.2c2.7,0.7,5,2.8,5.9,5.8c0.3,1,0.4,2.1,0.5,3.2c0,0.9,0,1.8-0.1,2.6
			c-0.4,2.8-2.1,5.2-4.3,6.5c-2.4,1.4-5.4,1.2-7.6-0.5"/>
	</g>
	<g>
		<path class="st1" d="M12.5,22.6c-0.9-2.1-3.4-2.7-5.3-2.2c-1.9,0.5-3.5,2-4.1,4c-0.2,0.7-0.3,1.5-0.3,2.2c0,0.6,0,1.2,0.1,1.8
			c0.3,1.9,1.4,3.6,3,4.5c1.7,1,3.7,0.8,5.3-0.4"/>
	</g>
	<g>
		<path class="st1" d="M57.5,22.6c0.9-2.1,3.4-2.7,5.3-2.2c1.9,0.5,3.5,2,4.1,4c0.2,0.7,0.3,1.5,0.3,2.2c0,0.6,0,1.2-0.1,1.8
			c-0.3,1.9-1.4,3.6-3,4.5c-1.7,1-3.7,0.8-5.3-0.4"/>
	</g>
	<g>
		<path class="st2" d="M58.1,21.1C56,15.6,52.2,11,47.5,8.2c-2.4-1.4-4.7-2.7-7.3-3.1c-3.2-0.5-6.5-0.5-9.8,0
			c-2.7,0.4-5,1.6-7.3,3.1c-4.7,2.8-8.5,7.4-10.6,12.9c-2.3,6.1-3.1,13.6-1.1,19.9c3.3,10.7,14.3,13.5,24,13.2
			c9.7,0.3,20.6-2.5,24-13.2C61.2,34.7,60.4,27.1,58.1,21.1z"/>
	</g>
	<g>
		<path class="st1" d="M55.3,30.2c-0.4-2.8-1.1-5.5-2.4-7.9c-2.1-3.9-6.1-6.1-10.1-5.1c-1.7,0.4-3.3,1.4-4.7,2.6
			c-0.8,0.7-2,1.9-3,1.7c-1-0.2-1.8-1-2.5-1.7c-1.3-1.2-3-2.2-4.7-2.6c-4-1.1-8,1.2-10.1,5.1c-1.3,2.4-2,5.2-2.4,7.9
			c-0.4,2.7-0.5,5.5,0,8.2c0.4,2.5,2.4,5.1,4.1,6.7c1.7,1.7,3.8,2.9,5.9,3.9c3,1.4,6.5,1.9,9.9,1.9c0,0,0,0,0.1,0c0,0,0,0,0.1,0
			c3.4,0,6.9-0.4,9.9-1.9c2.1-1,4.2-2.2,5.9-3.9c1.7-1.6,3.7-4.2,4.1-6.7C55.7,35.7,55.7,33,55.3,30.2z"/>
	</g>
	<g>
		<g>
			<path class="st3" d="M34.7,33.3c0,1.7,0.1,3.4,0.1,5.1c0,0.6,1,0.6,1,0c0-1.7-0.1-3.4-0.1-5.1C35.7,32.7,34.7,32.7,34.7,33.3
				L34.7,33.3z"/>
		</g>
	</g>
	<g>
		<g>
			<path class="st3" d="M31.9,36.2c0.4,1.6,2,3.1,3.7,2.8c1.7-0.2,2.6-2,3-3.5c0.1-0.6-0.8-0.9-1-0.3c-0.2,1-0.7,2.2-1.7,2.6
				c-1.4,0.6-2.7-0.7-3-1.9C32.7,35.3,31.8,35.6,31.9,36.2L31.9,36.2z"/>
		</g>
	</g>
	<g>
		<path class="st3" d="M36.3,35.1c0.8-0.6,3.3-3.1,1.4-4c-0.7-0.4-1.6-0.3-2.4-0.3c-0.8,0-3.5,0.1-3.2,1.6c0.2,1,0.8,1.7,1.5,2.3
			c0.7,0.6,1.4,1.2,2.3,0.7C36,35.2,36.2,35.2,36.3,35.1z"/>
	</g>
	<ellipse class="st3" cx="28" cy="32" rx="1.9" ry="2.2"/>
	<g class="st4">
		<path class="st5" d="M29.8,38.8c1.5-3.8-5.1-4.1-6-1.5c-0.3,1,0.3,2.1,1.1,2.5s1.8,0.4,2.6,0.3C28.4,40,29.4,39.7,29.8,38.8z"/>
	</g>
	<ellipse class="st3" cx="43.1" cy="32" rx="1.9" ry="2.2"/>
	<g class="st4">
		<path class="st5" d="M41.3,38.8c-1.5-3.8,5.1-4.1,6-1.5c0.3,1-0.3,2.1-1.1,2.5s-1.8,0.4-2.6,0.3C42.6,40,41.7,39.7,41.3,38.8z"/>
	</g>
	<g class="st6">
		<path class="st2" d="M58.1,21.1c-0.1-0.1-0.1-0.3-0.2-0.4c0,0.3,0,0.7-0.1,1c-0.6,7.4-2,15.9-7.1,21.1c-6.3,6.4-14.7,8.3-22.9,8.3
			c-3.2,0-6.4-0.2-9.6-0.8c4.8,3.2,11.1,4.1,17,3.9c9.7,0.3,20.6-2.5,24-13.2C61.2,34.7,60.4,27.1,58.1,21.1z"/>
	</g>
</g>
</svg>
