<?xml version="1.0" encoding="utf-8"?>
<!-- Generator: Adobe Illustrator 22.1.0, SVG Export Plug-In . SVG Version: 6.00 Build 0)  -->
<svg version="1.1" id="Layer_1" xmlns="http://www.w3.org/2000/svg" xmlns:xlink="http://www.w3.org/1999/xlink" x="0px" y="0px"
	 viewBox="0 0 60 60" style="enable-background:new 0 0 60 60;" xml:space="preserve">
<style type="text/css">
	.st0{fill:#FB9FC4;}
	.st1{fill:#EA75AB;}
	.st2{opacity:0.12;}
	.st3{fill:#FFFFFF;}
	.st4{fill:#7A344B;}
	.st5{opacity:0.23;}
	.st6{fill:#7F3E60;}
	.st7{opacity:9.000000e-02;}
</style>
<g>
	<g>
		<path class="st0" d="M59.1,30.5c-0.8-5.3-2.2-11.4-4.8-15.8C49.5,6.7,41.6,2.2,33.5,1c-1.2-0.2-2.4-0.2-3.5-0.1
			c-1.2-0.1-2.3,0-3.5,0.1c-8.1,1.2-16,5.8-20.8,13.7c-2.7,4.4-4,10.5-4.8,15.8c-0.6,4.2-0.7,8.6-0.2,12.9c0.3,2.3,0.6,4.7,1.9,6.5
			c4.5,6.3,12.7,7.8,19.3,8.8c2.7,0.4,5.4,0.6,8.1,0.5c2.7,0.1,5.4-0.1,8.1-0.5c6.5-1,14.8-2.4,19.3-8.8c1.3-1.8,1.6-4.2,1.9-6.5
			C59.8,39.1,59.7,34.7,59.1,30.5z"/>
	</g>
	<path class="st1" d="M37.2,37.4c0,4.7-3.6,7.3-8,7.3s-8-2.6-8-7.3s3.6-9.2,8-9.2S37.2,32.6,37.2,37.4z"/>
	<g class="st2">
		<path class="st3" d="M30.6,30.2c1.4,0,2.7,0.1,3.9,0.5c-1.4-1.5-3.3-2.5-5.3-2.5c-3.9,0-7.1,3.5-7.8,7.5
			C23.6,32.4,26.7,30.3,30.6,30.2z"/>
	</g>
	<ellipse class="st4" cx="16.1" cy="34.1" rx="2.4" ry="2.7"/>
	<g class="st5">
		<path class="st1" d="M18.3,42.5c1.9-4.7-6.2-5.1-7.3-1.8c-0.4,1.2,0.3,2.6,1.3,3.1s2.1,0.5,3.2,0.3C16.7,44,17.9,43.7,18.3,42.5z"
			/>
	</g>
	<ellipse class="st4" cx="42.3" cy="34.1" rx="2.4" ry="2.7"/>
	<g class="st5">
		<path class="st1" d="M40.1,42.5c-1.9-4.7,6.2-5.1,7.3-1.8c0.4,1.2-0.3,2.6-1.3,3.1c-1,0.6-2.1,0.5-3.2,0.3
			C41.8,44,40.6,43.7,40.1,42.5z"/>
	</g>
	<g>
		<ellipse class="st6" cx="26" cy="35.2" rx="1.5" ry="1.7"/>
		<ellipse class="st6" cx="32.4" cy="35.2" rx="1.5" ry="1.7"/>
	</g>
	<g>
		<path class="st1" d="M18.5,10.7c-1-2.9-3.3-8.5-6.8-6.5c-2.4,1.4-3.1,4.9-5,6.7c-0.9,0.8-1.9,1.4-2.9,2.1c-1,0.7-1.9,1.7-2.2,3
			c-0.7,3.1,1.3,5.4,3.4,6.7c3.9,2.5,8.7,4.2,13.2,3.9c0.3,0,0.5-0.1,0.7-0.2c0.7-0.3,1.1-1.2,1.2-2C20.9,20.2,20,14.8,18.5,10.7z"
			/>
	</g>
	<g class="st7">
		<path class="st1" d="M59.1,30.5c-0.8-5.3-2.2-11.4-4.8-15.8c-0.1-0.2-0.2-0.4-0.3-0.5c0.5,2.7,0.7,5.5,0.9,8.2
			c0.4,7.8-0.2,16.1-4.3,22.6c-4.2,6.6-11.6,10.4-18.4,12c-3.6,0.8-7.3,1.3-10.9,1.6c0.3,0,0.5,0.1,0.8,0.1c2.7,0.4,5.4,0.6,8.1,0.5
			c2.7,0.1,5.4-0.1,8.1-0.5c6.5-1,14.8-2.4,19.3-8.8c1.3-1.8,1.6-4.2,1.9-6.5C59.8,39.1,59.7,34.7,59.1,30.5z"/>
	</g>
	<g>
		<path class="st1" d="M40.7,10.7c1-2.9,3.3-8.5,6.8-6.5c2.4,1.4,3.1,4.9,5,6.7c0.9,0.8,1.9,1.4,2.9,2.1c1,0.7,1.9,1.7,2.2,3
			c0.7,3.1-1.3,5.4-3.4,6.7c-3.9,2.5-8.7,4.2-13.2,3.9c-0.3,0-0.5-0.1-0.7-0.2c-0.7-0.3-1.1-1.2-1.2-2
			C38.4,20.2,39.3,14.8,40.7,10.7z"/>
	</g>
</g>
</svg>
