<?xml version="1.0" encoding="utf-8"?>
<!-- Generator: Adobe Illustrator 22.1.0, SVG Export Plug-In . SVG Version: 6.00 Build 0)  -->
<svg version="1.1" id="Layer_1" xmlns="http://www.w3.org/2000/svg" xmlns:xlink="http://www.w3.org/1999/xlink" x="0px" y="0px"
	 viewBox="0 0 60 60" style="enable-background:new 0 0 60 60;" xml:space="preserve">
<style type="text/css">
	.st0{fill:#EFAE59;}
	.st1{fill:#FCDFB9;}
	.st2{fill:#FFC166;}
	.st3{fill:#7A344B;}
	.st4{opacity:0.36;}
	.st5{fill:#FFABAC;}
	.st6{opacity:0.14;}
	.st7{fill:#FFFFFF;}
	.st8{opacity:0.15;}
</style>
<g>
	<g>
		<path class="st0" d="M3.3,25.2c-1.8-4-2.5-8.4-2.3-12.8C1.1,10.2,1.5,8,2.1,5.9c0.3-1,0.7-2.1,1.1-3.1c0.3-0.8,0.7-1.4,1.2-2.1
			C5.3-0.1,7.2,1.1,8,1.5C9.5,2.2,10.9,3,12.1,4c3.2,2.5,5.8,5.9,7.3,9.7"/>
	</g>
	<g>
		<path class="st0" d="M54.2,25.2c1.8-4,2.5-8.4,2.3-12.8C56.4,10.2,56,8,55.3,5.9c-0.3-1-0.7-2.1-1.1-3.1c-0.3-0.8-0.7-1.4-1.2-2.1
			c-0.8-0.9-2.7,0.3-3.5,0.7C48,2.2,46.6,3,45.4,4c-3.2,2.5-5.8,5.9-7.3,9.7"/>
	</g>
	<g>
		<path class="st1" d="M51.7,22c0.8-2.6,1.1-5.2,1-7.9c-0.1-1.4-0.1-2.8-0.4-4.1c-0.1-0.8-0.3-1.5-0.7-2.2c-0.2-0.3-2.2,0.5-2.4,0.6
			c-0.8,0.3-1.5,0.8-2.2,1.3c-1.6,1.1-3.1,2.6-4.2,4.2"/>
	</g>
	<g>
		<path class="st1" d="M5.8,22c-0.8-2.6-1.1-5.2-1-7.9c0.1-1.4,0.1-2.8,0.4-4.1c0.1-0.8,0.3-1.5,0.7-2.2C6,7.4,8.1,8.2,8.3,8.3
			c0.8,0.3,1.5,0.8,2.2,1.3c1.6,1.1,3.1,2.6,4.2,4.2"/>
	</g>
	<g>
		<path class="st2" d="M59.5,34.1C58.8,28.9,57,23.8,54,19.4c-5.2-7.9-14.8-10.1-24-9.8c-9.2-0.3-18.9,1.9-24,9.8
			C3,23.8,1.2,28.9,0.5,34.1C0.1,37-0.2,40,0.2,42.9c0.4,2.9,1.5,5.8,3.5,8c3.1,3.2,6.5,5.4,10.9,6.7c5,1.4,10.2,2.1,15.4,2
			c5.2,0.1,10.4-0.6,15.4-2c4.4-1.2,7.7-3.4,10.9-6.7c2.1-2.1,3.2-5,3.5-8C60.2,40,59.9,37,59.5,34.1z"/>
	</g>
	<g>
		<path class="st1" d="M3.7,50.9c3.1,3.2,6.5,5.4,10.9,6.7c5,1.4,10.2,2.1,15.4,2c5.2,0.1,10.4-0.6,15.4-2c4.4-1.2,7.7-3.4,10.9-6.7
			c1.2-1.2,2.1-2.8,2.7-4.4c0-0.1,0-0.1,0-0.2c-0.4-1.7-1.2-3.5-2.7-4.4c-2-1.3-4.6-1.1-7-0.9c-2.4,0.2-5.1,0.2-6.8-1.4
			c-1.5-1.3-1.9-3.8-3.2-5.4c-3.3-3.9-9.2-4.8-13.8-3.1c-1.7,0.6-3.2,1.7-4.4,3.1c-1.3,1.6-1.8,4-3.2,5.4c-1.8,1.6-4.5,1.6-6.8,1.4
			c-2.4-0.2-5-0.4-7,0.9c-1.5,1-2.4,2.7-2.7,4.4c0,0.1,0,0.1,0,0.2C1.6,48.1,2.5,49.6,3.7,50.9z"/>
	</g>
	<circle class="st3" cx="16.5" cy="35.8" r="2.1"/>
	<g class="st4">
		<path class="st5" d="M47.3,43.3c2-4.9-6.7-5.3-7.8-1.9c-0.4,1.2,0.4,2.7,1.4,3.2s2.3,0.5,3.5,0.4C45.6,44.8,46.8,44.4,47.3,43.3z"
			/>
	</g>
	<circle class="st3" cx="43.5" cy="35.8" r="2.1"/>
	<g class="st6">
		<path class="st7" d="M11.1,43.8c3.8-0.5,8.2,0,9.9-4.2c1.1-2.9,2.5-5.4,5.3-7c2.2-1.3,5.5-1.6,8.1-1.4c0.3,0,0.6,0.1,0.8,0.1
			c-3.1-1.3-6.8-1.4-9.9-0.2c-1.7,0.6-3.2,1.7-4.4,3.1c-1.3,1.6-1.8,4-3.2,5.4c-1.8,1.6-4.5,1.6-6.8,1.4c-2.4-0.2-5-0.4-7,0.9
			c-1.5,1-2.4,2.7-2.7,4.4c0,0.1,0,0.1,0,0.2c0.4,1,0.8,1.9,1.4,2.8C4.1,46.2,7.3,44.4,11.1,43.8z"/>
	</g>
	<g class="st4">
		<path class="st5" d="M21.3,43.3c2-4.9-6.7-5.3-7.8-1.9c-0.4,1.2,0.4,2.7,1.4,3.2s2.3,0.5,3.5,0.4C19.5,44.8,20.8,44.4,21.3,43.3z"
			/>
	</g>
	<g>
		<path class="st3" d="M29.7,36.6c0,1.5,0.1,3.1,0.1,4.6c0,0.3,0.5,0.3,0.5,0c-0.1-1.5-0.1-3.1-0.1-4.6
			C30.2,36.3,29.7,36.3,29.7,36.6L29.7,36.6z"/>
	</g>
	<g>
		<path class="st3" d="M26.5,39.1c1.2,3.7,6.4,3.4,7.1-0.4c0.1-0.3-0.4-0.5-0.5-0.1c-0.6,3.3-5,3.7-6.1,0.4
			C26.9,38.7,26.4,38.8,26.5,39.1L26.5,39.1z"/>
	</g>
	<g>
		<path class="st3" d="M31.7,37.5c1.4-0.8,2.9-2.3,2.1-3.4c-0.4-0.6-1.2-0.7-1.9-0.9c-1-0.2-2.1-0.2-3.1,0c-0.9,0.1-1.9,0.3-2.5,1
			c-0.2,0.2-0.3,0.6-0.3,0.9c0.1,0.3,0.4,0.7,0.6,1c0.3,0.4,0.6,0.7,1,1c0.7,0.5,1.8,1.1,2.8,1C30.7,38,31.2,37.8,31.7,37.5z"/>
	</g>
	<g class="st8">
		<path class="st2" d="M59.5,34.1C58.8,28.9,57,23.8,54,19.4c-2-3.1-4.8-5.3-7.9-6.9c0.8,1.1,1.5,2.3,2.1,3.4
			c2.5,5.2,3.6,10.7,4,16.5c0.4,5.2,0.1,10-3.2,14.2c-5.3,6.8-14.9,9.5-23.2,10.1c-5.2,0.4-10.6,0.1-15.9-1c1.4,0.7,2.9,1.4,4.6,1.8
			c5,1.4,10.2,2.1,15.4,2c5.2,0.1,10.4-0.6,15.4-2c4.4-1.2,7.7-3.4,10.9-6.7c2.1-2.1,3.2-5,3.5-8C60.2,40,59.9,37,59.5,34.1z"/>
	</g>
</g>
</svg>
